<svg xmlns="http://www.w3.org/2000/svg" viewBox="0 0 461.7 941.13"><defs>
<style>.cls-1{fill:none;stroke:#fff;stroke-miterlimit:10;}</style>
</defs>
<g id="Layer_2" data-name="Layer 2"><g id="Layer_2-2" data-name="Layer 2">
<path class="cls-1" d="M375.92,38.14C330.5-.17,262.36-11.55,209.11,14.81s-85.88,91.42-70.27,148.76c4.87,17.88,13.87,34.65,16.49,53,3.81,26.66-6.43,53.62-21.26,76.09S99.91,334.22,82.7,354.93a409.08,409.08,0,0,0-69.48,120.9C2.79,504.39-4.4,535.93,4.57,565c10.72,34.7,43.19,61.37,46.65,97.53,2.28,24-8.81,46.88-18.31,69-19.07,44.43-32.27,97-9.68,139.79C37.53,898.33,64.49,917,93.4,927.05s59.88,12.24,90.46,13.14c29.14.86,58.35.6,87.39-2,21.25-1.88,42.6-5.07,62.46-12.87C388,904,424.49,849.58,436.33,792.44s2.16-116.67-14.1-172.7C404.05,557.13,377.82,489,404.34,429.47c10.23-23,27.53-42.09,39.36-64.29a152.63,152.63,0,0,0,8.89-121.47C443.93,219.48,429,197,426.72,171.35c-1.65-19,3.91-37.89,3.34-56.92C429.06,81.41,401.94,60.09,375.92,38.14Z"/></g></g></svg>
